<svg width="24" height="22" viewBox="0 0 24 22" fill="none" xmlns="http://www.w3.org/2000/svg">
<g filter="url(#filter0_d_870_1820)">
<path d="M4 15V17H20V15H4ZM4 4H6.2C6.11667 3.85 6.0625 3.69167 6.0375 3.525C6.0125 3.35833 6 3.18333 6 3C6 2.16667 6.29167 1.45833 6.875 0.875C7.45833 0.291667 8.16667 0 9 0C9.5 0 9.9625 0.129167 10.3875 0.3875C10.8125 0.645833 11.1833 0.966667 11.5 1.35L12 2L12.5 1.35C12.8 0.95 13.1667 0.625 13.6 0.375C14.0333 0.125 14.5 0 15 0C15.8333 0 16.5417 0.291667 17.125 0.875C17.7083 1.45833 18 2.16667 18 3C18 3.18333 17.9875 3.35833 17.9625 3.525C17.9375 3.69167 17.8833 3.85 17.8 4H20C20.55 4 21.0208 4.19583 21.4125 4.5875C21.8042 4.97917 22 5.45 22 6V17C22 17.55 21.8042 18.0208 21.4125 18.4125C21.0208 18.8042 20.55 19 20 19H4C3.45 19 2.97917 18.8042 2.5875 18.4125C2.19583 18.0208 2 17.55 2 17V6C2 5.45 2.19583 4.97917 2.5875 4.5875C2.97917 4.19583 3.45 4 4 4ZM4 12H20V6H14.9L17 8.85L15.4 10L12 5.4L8.6 10L7 8.85L9.05 6H4V12ZM9 4C9.28333 4 9.52083 3.90417 9.7125 3.7125C9.90417 3.52083 10 3.28333 10 3C10 2.71667 9.90417 2.47917 9.7125 2.2875C9.52083 2.09583 9.28333 2 9 2C8.71667 2 8.47917 2.09583 8.2875 2.2875C8.09583 2.47917 8 2.71667 8 3C8 3.28333 8.09583 3.52083 8.2875 3.7125C8.47917 3.90417 8.71667 4 9 4ZM15 4C15.2833 4 15.5208 3.90417 15.7125 3.7125C15.9042 3.52083 16 3.28333 16 3C16 2.71667 15.9042 2.47917 15.7125 2.2875C15.5208 2.09583 15.2833 2 15 2C14.7167 2 14.4792 2.09583 14.2875 2.2875C14.0958 2.47917 14 2.71667 14 3C14 3.28333 14.0958 3.52083 14.2875 3.7125C14.4792 3.90417 14.7167 4 15 4Z" fill="#282828"/>
</g>
<defs>
<filter id="filter0_d_870_1820" x="-2" y="0" width="28" height="27" filterUnits="userSpaceOnUse" color-interpolation-filters="sRGB">
<feFlood flood-opacity="0" result="BackgroundImageFix"/>
<feColorMatrix in="SourceAlpha" type="matrix" values="0 0 0 0 0 0 0 0 0 0 0 0 0 0 0 0 0 0 127 0" result="hardAlpha"/>
<feOffset dy="4"/>
<feGaussianBlur stdDeviation="2"/>
<feComposite in2="hardAlpha" operator="out"/>
<feColorMatrix type="matrix" values="0 0 0 0 0 0 0 0 0 0 0 0 0 0 0 0 0 0 0.25 0"/>
<feBlend mode="normal" in2="BackgroundImageFix" result="effect1_dropShadow_870_1820"/>
<feBlend mode="normal" in="SourceGraphic" in2="effect1_dropShadow_870_1820" result="shape"/>
</filter>
</defs>
</svg>
