<svg width="19" height="21" viewBox="0 0 19 21" fill="none" xmlns="http://www.w3.org/2000/svg">
<path d="M0 11.8C0 10.1333 0.6625 8.32083 1.9875 6.3625C3.3125 4.40417 5.31667 2.28333 8 0C9.96667 1.66667 11.5625 3.25 12.7875 4.75C14.0125 6.25 14.8917 7.675 15.425 9.025H13.25C12.7833 8.075 12.1167 7.07083 11.25 6.0125C10.3833 4.95417 9.3 3.83333 8 2.65C6.01667 4.46667 4.52083 6.14167 3.5125 7.675C2.50417 9.20833 2 10.5833 2 11.8C2 13.5833 2.56667 15.0625 3.7 16.2375C4.83333 17.4125 6.26667 18 8 18V20C5.71667 20 3.8125 19.2167 2.2875 17.65C0.7625 16.0833 0 14.1333 0 11.8ZM10.8 20.475L10.375 19.525C10.2417 19.2417 10.1458 18.9458 10.0875 18.6375C10.0292 18.3292 10 18.0167 10 17.7C10 17.3333 10.0417 16.9708 10.125 16.6125C10.2083 16.2542 10.3333 15.9083 10.5 15.575C10.6333 15.2917 10.75 15.0042 10.85 14.7125C10.95 14.4208 11 14.1167 11 13.8C11 13.55 10.9708 13.3083 10.9125 13.075C10.8542 12.8417 10.775 12.6083 10.675 12.375L10.325 11.625L11.7 11.025L12.125 11.925C12.2583 12.2083 12.3542 12.5083 12.4125 12.825C12.4708 13.1417 12.5 13.4667 12.5 13.8C12.5 14.1667 12.4583 14.525 12.375 14.875C12.2917 15.225 12.1667 15.5667 12 15.9C11.8667 16.1833 11.75 16.475 11.65 16.775C11.55 17.075 11.5 17.3833 11.5 17.7C11.5 17.9333 11.525 18.1625 11.575 18.3875C11.625 18.6125 11.7 18.8333 11.8 19.05L12.175 19.875L10.8 20.475ZM13.8 20.475L13.375 19.525C13.2417 19.2417 13.1458 18.9458 13.0875 18.6375C13.0292 18.3292 13 18.0167 13 17.7C13 17.3333 13.0417 16.9708 13.125 16.6125C13.2083 16.2542 13.3333 15.9083 13.5 15.575C13.6333 15.2917 13.75 15.0042 13.85 14.7125C13.95 14.4208 14 14.1167 14 13.8C14 13.55 13.9708 13.3083 13.9125 13.075C13.8542 12.8417 13.775 12.6083 13.675 12.375L13.325 11.625L14.7 11.025L15.125 11.925C15.2583 12.225 15.3542 12.5292 15.4125 12.8375C15.4708 13.1458 15.5 13.4667 15.5 13.8C15.5 14.1667 15.4583 14.525 15.375 14.875C15.2917 15.225 15.1667 15.5667 15 15.9C14.8667 16.1833 14.75 16.475 14.65 16.775C14.55 17.075 14.5 17.3833 14.5 17.7C14.5 17.9333 14.525 18.1625 14.575 18.3875C14.625 18.6125 14.7 18.8333 14.8 19.05L15.175 19.875L13.8 20.475ZM16.8 20.475L16.375 19.525C16.2417 19.2417 16.1458 18.9458 16.0875 18.6375C16.0292 18.3292 16 18.0167 16 17.7C16 17.3333 16.0417 16.9708 16.125 16.6125C16.2083 16.2542 16.3333 15.9083 16.5 15.575C16.6333 15.2917 16.75 15.0042 16.85 14.7125C16.95 14.4208 17 14.1167 17 13.8C17 13.55 16.9708 13.3083 16.9125 13.075C16.8542 12.8417 16.775 12.6083 16.675 12.375L16.325 11.625L17.7 11.025L18.125 11.925C18.2583 12.2083 18.3542 12.5083 18.4125 12.825C18.4708 13.1417 18.5 13.4667 18.5 13.8C18.5 14.1667 18.4583 14.5292 18.375 14.8875C18.2917 15.2458 18.1667 15.5917 18 15.925C17.8667 16.2083 17.75 16.4958 17.65 16.7875C17.55 17.0792 17.5 17.3833 17.5 17.7C17.5 17.9333 17.525 18.1625 17.575 18.3875C17.625 18.6125 17.7 18.8333 17.8 19.05L18.175 19.875L16.8 20.475Z" fill="#282828"/>
</svg>
